  0
SECTION
  2
HEADER
  9
$ACADVER
  1
AC1015
  9
$ACADMAINTVER
 70
     6
  9
$DWGCODEPAGE
  3
ANSI_1252
  9
$INSBASE
 10
0.0
 20
0.0
 30
0.0
  9
$EXTMIN
 10
-2.1428536617
 20
-0.5033964972
 30
0.0
  9
$EXTMAX
 10
2.306158337
 20
0.9394595292
 30
0.0
  9
$LIMMIN
 10
0.0
 20
0.0
  9
$LIMMAX
 10
12.0
 20
9.0
  9
$ORTHOMODE
 70
     0
  9
$REGENMODE
 70
     1
  9
$FILLMODE
 70
     1
  9
$QTEXTMODE
 70
     0
  9
$MIRRTEXT
 70
     1
  9
$LTSCALE
 40
1.0
  9
$ATTMODE
 70
     1
  9
$TEXTSIZE
 40
0.1377952756
  9
$TRACEWID
 40
0.05
  9
$TEXTSTYLE
  7
Standard
  9
$CLAYER
  8
0
  9
$CELTYPE
  6
ByLayer
  9
$CECOLOR
 62
   256
  9
$CELTSCALE
 40
1.0
  9
$DISPSILH
 70
     0
  9
$DIMSCALE
 40
1.0
  9
$DIMASZ
 40
0.14
  9
$DIMEXO
 40
0.0
  9
$DIMDLI
 40
0.38
  9
$DIMRND
 40
0.0
  9
$DIMDLE
 40
0.0
  9
$DIMEXE
 40
0.0393700787
  9
$DIMTP
 40
0.0
  9
$DIMTM
 40
0.0
  9
$DIMTXT
 40
0.1377952756
  9
$DIMCEN
 40
0.09
  9
$DIMTSZ
 40
0.0
  9
$DIMTOL
 70
     0
  9
$DIMLIM
 70
     0
  9
$DIMTIH
 70
     1
  9
$DIMTOH
 70
     1
  9
$DIMSE1
 70
     0
  9
$DIMSE2
 70
     0
  9
$DIMTAD
 70
     1
  9
$DIMZIN
 70
     1
  9
$DIMBLK
  1

  9
$DIMASO
 70
     1
  9
$DIMSHO
 70
     1
  9
$DIMPOST
  1

  9
$DIMAPOST
  1

  9
$DIMALT
 70
     0
  9
$DIMALTD
 70
     2
  9
$DIMALTF
 40
25.4
  9
$DIMLFAC
 40
1.0
  9
$DIMTOFL
 70
     0
  9
$DIMTVP
 40
0.0
  9
$DIMTIX
 70
     0
  9
$DIMSOXD
 70
     0
  9
$DIMSAH
 70
     0
  9
$DIMBLK1
  1

  9
$DIMBLK2
  1

  9
$DIMSTYLE
  2
Standard
  9
$DIMCLRD
 70
     0
  9
$DIMCLRE
 70
     0
  9
$DIMCLRT
 70
     0
  9
$DIMTFAC
 40
1.0
  9
$DIMGAP
 40
0.06
  9
$DIMJUST
 70
     0
  9
$DIMSD1
 70
     0
  9
$DIMSD2
 70
     0
  9
$DIMTOLJ
 70
     1
  9
$DIMTZIN
 70
     1
  9
$DIMALTZ
 70
     0
  9
$DIMALTTZ
 70
     0
  9
$DIMUPT
 70
     0
  9
$DIMDEC
 70
     2
  9
$DIMTDEC
 70
     2
  9
$DIMALTU
 70
     2
  9
$DIMALTTD
 70
     2
  9
$DIMTXSTY
  7
Standard
  9
$DIMAUNIT
 70
     0
  9
$DIMADEC
 70
     2
  9
$DIMALTRND
 40
0.0
  9
$DIMAZIN
 70
     0
  9
$DIMDSEP
 70
    46
  9
$DIMATFIT
 70
     3
  9
$DIMFRAC
 70
     0
  9
$DIMLDRBLK
  1

  9
$DIMLUNIT
 70
     2
  9
$DIMLWD
 70
    -2
  9
$DIMLWE
 70
    -2
  9
$DIMTMOVE
 70
     0
  9
$LUNITS
 70
     2
  9
$LUPREC
 70
     6
  9
$SKETCHINC
 40
0.1
  9
$FILLETRAD
 40
0.0
  9
$AUNITS
 70
     0
  9
$AUPREC
 70
     2
  9
$MENU
  1
.
  9
$ELEVATION
 40
0.0
  9
$PELEVATION
 40
0.0
  9
$THICKNESS
 40
0.0
  9
$LIMCHECK
 70
     0
  9
$CHAMFERA
 40
0.0
  9
$CHAMFERB
 40
0.0
  9
$CHAMFERC
 40
0.0
  9
$CHAMFERD
 40
0.0
  9
$SKPOLY
 70
     0
  9
$TDCREATE
 40
2460371.481453461
  9
$TDUCREATE
 40
2460371.814786794
  9
$TDUPDATE
 40
2460371.481479757
  9
$TDUUPDATE
 40
2460371.814813091
  9
$TDINDWG
 40
0.0000000116
  9
$TDUSRTIMER
 40
0.0000000116
  9
$USRTIMER
 70
     1
  9
$ANGBASE
 50
0.0
  9
$ANGDIR
 70
     0
  9
$PDMODE
 70
     0
  9
$PDSIZE
 40
-1.0
  9
$PLINEWID
 40
0.0
  9
$SPLFRAME
 70
     0
  9
$SPLINETYPE
 70
     6
  9
$SPLINESEGS
 70
     8
  9
$HANDSEED
  5
12E
  9
$SURFTAB1
 70
     6
  9
$SURFTAB2
 70
     6
  9
$SURFTYPE
 70
     6
  9
$SURFU
 70
     6
  9
$SURFV
 70
     6
  9
$UCSBASE
  2

  9
$UCSNAME
  2

  9
$UCSORG
 10
0.0
 20
0.0
 30
0.0
  9
$UCSXDIR
 10
1.0
 20
0.0
 30
0.0
  9
$UCSYDIR
 10
0.0
 20
1.0
 30
0.0
  9
$UCSORTHOREF
  2

  9
$UCSORTHOVIEW
 70
     0
  9
$UCSORGTOP
 10
0.0
 20
0.0
 30
0.0
  9
$UCSORGBOTTOM
 10
0.0
 20
0.0
 30
0.0
  9
$UCSORGLEFT
 10
0.0
 20
0.0
 30
0.0
  9
$UCSORGRIGHT
 10
0.0
 20
0.0
 30
0.0
  9
$UCSORGFRONT
 10
0.0
 20
0.0
 30
0.0
  9
$UCSORGBACK
 10
0.0
 20
0.0
 30
0.0
  9
$PUCSBASE
  2

  9
$PUCSNAME
  2

  9
$PUCSORG
 10
0.0
 20
0.0
 30
0.0
  9
$PUCSXDIR
 10
1.0
 20
0.0
 30
0.0
  9
$PUCSYDIR
 10
0.0
 20
1.0
 30
0.0
  9
$PUCSORTHOREF
  2

  9
$PUCSORTHOVIEW
 70
     0
  9
$PUCSORGTOP
 10
0.0
 20
0.0
 30
0.0
  9
$PUCSORGBOTTOM
 10
0.0
 20
0.0
 30
0.0
  9
$PUCSORGLEFT
 10
0.0
 20
0.0
 30
0.0
  9
$PUCSORGRIGHT
 10
0.0
 20
0.0
 30
0.0
  9
$PUCSORGFRONT
 10
0.0
 20
0.0
 30
0.0
  9
$PUCSORGBACK
 10
0.0
 20
0.0
 30
0.0
  9
$USERI1
 70
     0
  9
$USERI2
 70
     0
  9
$USERI3
 70
     0
  9
$USERI4
 70
     0
  9
$USERI5
 70
     0
  9
$USERR1
 40
0.0
  9
$USERR2
 40
0.0
  9
$USERR3
 40
0.0
  9
$USERR4
 40
0.0
  9
$USERR5
 40
0.0
  9
$WORLDVIEW
 70
     1
  9
$SHADEDGE
 70
     3
  9
$SHADEDIF
 70
    70
  9
$TILEMODE
 70
     1
  9
$MAXACTVP
 70
    64
  9
$PINSBASE
 10
0.0
 20
0.0
 30
0.0
  9
$PLIMCHECK
 70
     0
  9
$PEXTMIN
 10
1.0000000000E+20
 20
1.0000000000E+20
 30
1.0000000000E+20
  9
$PEXTMAX
 10
-1.0000000000E+20
 20
-1.0000000000E+20
 30
-1.0000000000E+20
  9
$PLIMMIN
 10
0.0
 20
0.0
  9
$PLIMMAX
 10
12.0
 20
9.0
  9
$UNITMODE
 70
     0
  9
$VISRETAIN
 70
     1
  9
$PLINEGEN
 70
     0
  9
$PSLTSCALE
 70
     1
  9
$TREEDEPTH
 70
  3020
  9
$CMLSTYLE
  2
Standard
  9
$CMLJUST
 70
     0
  9
$CMLSCALE
 40
1.0
  9
$PROXYGRAPHICS
 70
     1
  9
$MEASUREMENT
 70
     0
  9
$CELWEIGHT
370
    -1
  9
$ENDCAPS
280
     0
  9
$JOINSTYLE
280
     0
  9
$LWDISPLAY
290
     1
  9
$INSUNITS
 70
     1
  9
$HYPERLINKBASE
  1

  9
$STYLESHEET
  1

  9
$XEDIT
290
     1
  9
$CEPSNTYPE
380
     0
  9
$PSTYLEMODE
290
     1
  9
$FINGERPRINTGUID
  2
{72d345f1-e395-4b1c-a025-d19af33ded5e}
  9
$VERSIONGUID
  2
{FAEB1C32-E019-11D5-929B-00C0DF256EC4}
  9
$EXTNAMES
290
     1
  9
$PSVPSCALE
 40
0.0
  9
$OLESTARTUP
290
     0
  0
ENDSEC
  0
SECTION
  2
CLASSES
  0
CLASS
  1
ACDBDICTIONARYWDFLT
  2
AcDbDictionaryWithDefault
  3
ObjectDBX Classes
 90
        0
280
     0
281
     0
  0
CLASS
  1
VISUALSTYLE
  2
AcDbVisualStyle
  3
ObjectDBX Classes
 90
     4095
280
     0
281
     0
  0
CLASS
  1
MATERIAL
  2
AcDbMaterial
  3
ObjectDBX Classes
 90
     1153
280
     0
281
     0
  0
CLASS
  1
SCALE
  2
AcDbScale
  3
ObjectDBX Classes
 90
     1153
280
     0
281
     0
  0
CLASS
  1
TABLESTYLE
  2
AcDbTableStyle
  3
ObjectDBX Classes
 90
     4095
280
     0
281
     0
  0
CLASS
  1
MLEADERSTYLE
  2
AcDbMLeaderStyle
  3
ACDB_MLEADERSTYLE_CLASS
 90
     4095
280
     0
281
     0
  0
CLASS
  1
SUN
  2
AcDbSun
  3
SCENEOE
 90
     1153
280
     0
281
     0
  0
CLASS
  1
ACDBPLACEHOLDER
  2
AcDbPlaceHolder
  3
ObjectDBX Classes
 90
        0
280
     0
281
     0
  0
CLASS
  1
LAYOUT
  2
AcDbLayout
  3
ObjectDBX Classes
 90
        0
280
     0
281
     0
  0
ENDSEC
  0
SECTION
  2
TABLES
  0
TABLE
  2
VPORT
  5
8
330
0
100
AcDbSymbolTable
 70
     1
  0
VPORT
  5
29
330
8
100
AcDbSymbolTableRecord
100
AcDbViewportTableRecord
  2
*Active
 70
     0
 10
0.0
 20
0.0
 11
1.0
 21
1.0
 12
0.0816523376
 22
0.218031516
 13
0.0
 23
0.0
 14
0.5
 24
0.5
 15
0.5
 25
0.5
 16
0.0
 26
0.0
 36
1.0
 17
0.0
 27
0.0
 37
0.0
 40
1.471713147
 41
3.0834760483
 42
50.0
 43
0.0
 44
0.0
 50
0.0
 51
0.0
 71
     0
 72
   100
 73
     1
 74
     3
 75
     0
 76
     0
 77
     0
 78
     0
281
     0
 65
     1
110
0.0
120
0.0
130
0.0
111
1.0
121
0.0
131
0.0
112
0.0
122
1.0
132
0.0
 79
     0
146
0.0
  0
ENDTAB
  0
TABLE
  2
LTYPE
  5
5
330
0
100
AcDbSymbolTable
 70
     6
  0
LTYPE
  5
14
330
5
100
AcDbSymbolTableRecord
100
AcDbLinetypeTableRecord
  2
ByBlock
 70
     0
  3

 72
    65
 73
     0
 40
0.0
  0
LTYPE
  5
15
330
5
100
AcDbSymbolTableRecord
100
AcDbLinetypeTableRecord
  2
ByLayer
 70
     0
  3

 72
    65
 73
     0
 40
0.0
  0
LTYPE
  5
16
330
5
100
AcDbSymbolTableRecord
100
AcDbLinetypeTableRecord
  2
Continuous
 70
     0
  3
Solid line
 72
    65
 73
     0
 40
0.0
  0
LTYPE
  5
5E
330
5
100
AcDbSymbolTableRecord
100
AcDbLinetypeTableRecord
  2
HIDDEN
 70
     0
  3
Hidden __ __ __ __ __ __ __ __ __ __ __ __ __ __
 72
    65
 73
     2
 40
0.075
 49
0.05
 74
     0
 49
-0.025
 74
     0
  0
LTYPE
  5
5F
330
5
100
AcDbSymbolTableRecord
100
AcDbLinetypeTableRecord
  2
PHANTOM
 70
     0
  3
Phantom ______  __  __  ______  __  __  ______
 72
    65
 73
     6
 40
0.5
 49
0.25
 74
     0
 49
-0.05
 74
     0
 49
0.05
 74
     0
 49
-0.05
 74
     0
 49
0.05
 74
     0
 49
-0.05
 74
     0
  0
LTYPE
  5
60
330
5
100
AcDbSymbolTableRecord
100
AcDbLinetypeTableRecord
  2
CENTER
 70
     0
  3
Center ____ _ ____ _ ____ _ ____ _ ____ _ ____
 72
    65
 73
     4
 40
0.4
 49
0.25
 74
     0
 49
-0.05
 74
     0
 49
0.05
 74
     0
 49
-0.05
 74
     0
  0
LTYPE
  5
61
330
5
100
AcDbSymbolTableRecord
100
AcDbLinetypeTableRecord
  2
CENTERX2
 70
     0
  3
Center (2x) ________  __  ________  __  _____
 72
    65
 73
     4
 40
0.8
 49
0.5
 74
     0
 49
-0.1
 74
     0
 49
0.1
 74
     0
 49
-0.1
 74
     0
  0
LTYPE
  5
62
330
5
100
AcDbSymbolTableRecord
100
AcDbLinetypeTableRecord
  2
DOT2
 70
     0
  3
Dot (.5x) ........................................
 72
    65
 73
     2
 40
0.025
 49
0.0
 74
     0
 49
-0.025
 74
     0
  0
ENDTAB
  0
TABLE
  2
LAYER
  5
2
330
0
100
AcDbSymbolTable
 70
     1
  0
LAYER
  5
10
330
2
100
AcDbSymbolTableRecord
100
AcDbLayerTableRecord
  2
0
 70
     0
 62
     7
  6
Continuous
370
    -3
390
F
  0
ENDTAB
  0
TABLE
  2
STYLE
  5
3
330
0
100
AcDbSymbolTable
 70
     2
  0
STYLE
  5
11
330
3
100
AcDbSymbolTableRecord
100
AcDbTextStyleTableRecord
  2
Standard
 70
     0
 40
0.0
 41
1.0
 50
0.0
 71
     0
 42
0.1377952756
  3
txt
  4

  0
STYLE
  5
12A
330
3
100
AcDbSymbolTableRecord
100
AcDbTextStyleTableRecord
  2
SLDTEXTSTYLE0
 70
     0
 40
0.0
 41
0.7
 50
0.0
 71
     0
 42
0.1377952756
  3
TXT
  4

  0
ENDTAB
  0
TABLE
  2
VIEW
  5
6
330
0
100
AcDbSymbolTable
 70
     0
  0
ENDTAB
  0
TABLE
  2
UCS
  5
7
330
0
100
AcDbSymbolTable
 70
     0
  0
ENDTAB
  0
TABLE
  2
APPID
  5
9
330
0
100
AcDbSymbolTable
 70
     1
  0
APPID
  5
12
330
9
100
AcDbSymbolTableRecord
100
AcDbRegAppTableRecord
  2
ACAD
 70
     0
  0
ENDTAB
  0
TABLE
  2
DIMSTYLE
  5
A
330
0
100
AcDbSymbolTable
 70
     1
100
AcDbDimStyleTable
  0
DIMSTYLE
105
27
330
A
100
AcDbSymbolTableRecord
100
AcDbDimStyleTableRecord
  2
Standard
 70
     0
178
     0
340
11
  0
ENDTAB
  0
TABLE
  2
BLOCK_RECORD
  5
1
330
0
100
AcDbSymbolTable
 70
     1
  0
BLOCK_RECORD
  5
1F
330
1
100
AcDbSymbolTableRecord
100
AcDbBlockTableRecord
  2
*Model_Space
340
22
  0
BLOCK_RECORD
  5
1B
330
1
100
AcDbSymbolTableRecord
100
AcDbBlockTableRecord
  2
*Paper_Space
340
1E
  0
BLOCK_RECORD
  5
23
330
1
100
AcDbSymbolTableRecord
100
AcDbBlockTableRecord
  2
*Paper_Space0
340
26
  0
ENDTAB
  0
ENDSEC
  0
SECTION
  2
BLOCKS
  0
BLOCK
  5
20
330
1F
100
AcDbEntity
  8
0
100
AcDbBlockBegin
  2
*Model_Space
 70
     0
 10
0.0
 20
0.0
 30
0.0
  3
*Model_Space
  1

  0
ENDBLK
  5
21
330
1F
100
AcDbEntity
  8
0
100
AcDbBlockEnd
  0
BLOCK
  5
1C
330
1B
100
AcDbEntity
 67
     1
  8
0
100
AcDbBlockBegin
  2
*Paper_Space
 70
     0
 10
0.0
 20
0.0
 30
0.0
  3
*Paper_Space
  1

  0
ENDBLK
  5
1D
330
1B
100
AcDbEntity
 67
     1
  8
0
100
AcDbBlockEnd
  0
BLOCK
  5
24
330
23
100
AcDbEntity
  8
0
100
AcDbBlockBegin
  2
*Paper_Space0
 70
     0
 10
0.0
 20
0.0
 30
0.0
  3
*Paper_Space0
  1

  0
ENDBLK
  5
25
330
23
100
AcDbEntity
  8
0
100
AcDbBlockEnd
  0
ENDSEC
  0
SECTION
  2
ENTITIES
  0
LWPOLYLINE
  5
66
330
1F
100
AcDbEntity
  8
0
  6
Continuous
 62
     7
370
    25
100
AcDbPolyline
 90
        9
 70
   128
 43
0.0
 10
1.8454312851
 20
0.2436180611
 10
1.8453164315
 20
0.2437128699
 10
1.8452015733
 20
0.2438076731
 10
1.8450867104
 20
0.2439024707
 10
1.8449718429
 20
0.2439972626
 10
1.8448569708
 20
0.244092049
 10
1.844742094
 20
0.2441868297
 10
1.8446272126
 20
0.2442816048
 10
1.8445123266
 20
0.2443763742
  0
LWPOLYLINE
  5
6A
330
1F
100
AcDbEntity
  8
0
  6
Continuous
 62
     7
370
    25
100
AcDbPolyline
 90
        9
 70
   128
 43
0.0
 10
1.8917054002
 20
0.2046374881
 10
1.8915924556
 20
0.2047345633
 10
1.8914795063
 20
0.2048316328
 10
1.8913665522
 20
0.2049286969
 10
1.8912535934
 20
0.2050257554
 10
1.8911406298
 20
0.2051228084
 10
1.8910276615
 20
0.2052198559
 10
1.8909146884
 20
0.2053168978
 10
1.8908017106
 20
0.2054139342
  0
LWPOLYLINE
  5
6E
330
1F
100
AcDbEntity
  8
0
  6
Continuous
 62
     7
370
    25
100
AcDbPolyline
 90
        9
 70
   128
 43
0.0
 10
1.9371948205
 20
0.1647439868
 10
1.9370838296
 20
0.1648432898
 10
1.9369728339
 20
0.1649425874
 10
1.9368618333
 20
0.1650418795
 10
1.9367508279
 20
0.1651411662
 10
1.9366398176
 20
0.1652404474
 10
1.9365288024
 20
0.1653397233
 10
1.9364177823
 20
0.1654389936
 10
1.9363067575
 20
0.1655382586
  0
LWPOLYLINE
  5
72
330
1F
100
AcDbEntity
  8
0
  6
Continuous
 62
     7
370
    25
100
AcDbPolyline
 90
        9
 70
   128
 43
0.0
 10
1.981881538
 20
0.1239533498
 10
1.9817725448
 20
0.1240548413
 10
1.9816635467
 20
0.1241563275
 10
1.9815545435
 20
0.1242578084
 10
1.9814455354
 20
0.1243592839
 10
1.9813365223
 20
0.1244607541
 10
1.9812275042
 20
0.124562219
 10
1.9811184812
 20
0.1246636785
 10
1.9810094532
 20
0.1247651327
  0
LWPOLYLINE
  5
76
330
1F
100
AcDbEntity
  8
0
  6
Continuous
 62
     7
370
    25
100
AcDbPolyline
 90
        9
 70
   128
 43
0.0
 10
2.0257478629
 20
0.0822817246
 10
2.0256409105
 20
0.0823853645
 10
2.025533953
 20
0.0824889992
 10
2.0254269904
 20
0.0825926287
 10
2.0253200228
 20
0.0826962529
 10
2.0252130501
 20
0.0827998718
 10
2.0251060723
 20
0.0829034856
 10
2.0249990894
 20
0.0830070941
 10
2.0248921014
 20
0.0831106973
  0
LWPOLYLINE
  5
7A
330
1F
100
AcDbEntity
  8
0
  6
Continuous
 62
     7
370
    25
100
AcDbPolyline
 90
        9
 70
   128
 43
0.0
 10
2.0687764298
 20
0.0397456078
 10
2.0686715605
 20
0.0398513551
 10
2.068566686
 20
0.0399570972
 10
2.0684618064
 20
0.0400628342
 10
2.0683569216
 20
0.0401685661
 10
2.0682520316
 20
0.0402742928
 10
2.0681471364
 20
0.0403800144
 10
2.068042236
 20
0.0404857309
 10
2.0679373305
 20
0.0405914422
  0
LWPOLYLINE
  5
7E
330
1F
100
AcDbEntity
  8
0
  6
Continuous
 62
     7
370
    25
100
AcDbPolyline
 90
        9
 70
   128
 43
0.0
 10
2.1109502051
 20
-0.003638162
 10
2.1108474604
 20
-0.0035303492
 10
2.1107447105
 20
-0.0034225415
 10
2.1106419553
 20
-0.0033147388
 10
2.1105391948
 20
-0.0032069411
 10
2.1104364291
 20
-0.0030991485
 10
2.110333658
 20
-0.0029913609
 10
2.1102308817
 20
-0.0028835783
 10
2.1101281001
 20
-0.0027758007
  0
LWPOLYLINE
  5
82
330
1F
100
AcDbEntity
  8
0
  6
Continuous
 62
     7
370
    25
100
AcDbPolyline
 90
        9
 70
   128
 43
0.0
 10
2.1522524935
 20
-0.0478524105
 10
2.1521519142
 20
-0.0477425749
 10
2.1520513295
 20
-0.0476327443
 10
2.1519507394
 20
-0.0475229185
 10
2.1518501439
 20
-0.0474130977
 10
2.1517495431
 20
-0.0473032819
 10
2.1516489369
 20
-0.0471934709
 10
2.1515483253
 20
-0.0470836649
 10
2.1514477083
 20
-0.0469738638
  0
LWPOLYLINE
  5
86
330
1F
100
AcDbEntity
  8
0
  6
Continuous
 62
     7
370
    25
100
AcDbPolyline
 90
        9
 70
   128
 43
0.0
 10
2.1926669449
 20
-0.0928796347
 10
2.1925685707
 20
-0.0927678198
 10
2.192470191
 20
-0.0926560097
 10
2.1923718059
 20
-0.0925442045
 10
2.1922734153
 20
-0.092432404
 10
2.1921750192
 20
-0.0923206084
 10
2.1920766176
 20
-0.0922088175
 10
2.1919782106
 20
-0.0920970315
 10
2.1918797981
 20
-0.0919852504
  0
LWPOLYLINE
  5
8A
330
1F
100
AcDbEntity
  8
0
  6
Continuous
 62
     7
370
    25
100
AcDbPolyline
 90
        9
 70
   128
 43
0.0
 10
2.2321775604
 20
-0.1387020099
 10
2.2320814303
 20
-0.1385882599
 10
2.2319852946
 20
-0.1384745146
 10
2.2318891533
 20
-0.1383607741
 10
2.2317930065
 20
-0.1382470382
 10
2.2316968541
 20
-0.1381333071
 10
2.2316006962
 20
-0.1380195806
 10
2.2315045326
 20
-0.1379058589
 10
2.2314083635
 20
-0.1377921419
  0
LWPOLYLINE
  5
96
330
1F
100
AcDbEntity
  8
0
  6
Continuous
 62
     7
370
    25
100
AcDbPolyline
 90
        9
 70
   128
 43
0.0
 10
1.0141378892
 20
0.7317300056
 10
1.0139991316
 20
0.7317841017
 10
1.0138603714
 20
0.731838191
 10
1.0137216085
 20
0.7318922735
 10
1.013582843
 20
0.7319463492
 10
1.0134440748
 20
0.7320004181
 10
1.013305304
 20
0.7320544802
 10
1.0131665305
 20
0.7321085356
 10
1.0130277544
 20
0.7321625841
  0
LWPOLYLINE
  5
9A
330
1F
100
AcDbEntity
  8
0
  6
Continuous
 62
     7
370
    25
100
AcDbPolyline
 90
        9
 70
   128
 43
0.0
 10
1.0702877477
 20
0.7091917672
 10
1.0701500939
 20
0.7092486132
 10
1.0700124372
 20
0.7093054525
 10
1.0698747778
 20
0.7093622851
 10
1.0697371156
 20
0.7094191109
 10
1.0695994506
 20
0.70947593
 10
1.0694617829
 20
0.7095327423
 10
1.0693241123
 20
0.7095895479
 10
1.069186439
 20
0.7096463467
  0
LWPOLYLINE
  5
9E
330
1F
100
AcDbEntity
  8
0
  6
Continuous
 62
     7
370
    25
100
AcDbPolyline
 90
        9
 70
   128
 43
0.0
 10
1.1259780841
 20
0.6855408637
 10
1.1258415885
 20
0.6856004372
 10
1.1257050899
 20
0.685660004
 10
1.1255685885
 20
0.6857195641
 10
1.1254320841
 20
0.6857791175
 10
1.1252955768
 20
0.6858386642
 10
1.1251590666
 20
0.6858982043
 10
1.1250225535
 20
0.6859577376
 10
1.1248860374
 20
0.6860172643
  0
LWPOLYLINE
  5
A2
330
1F
100
AcDbEntity
  8
0
  6
Continuous
 62
     7
370
    25
100
AcDbPolyline
 90
        9
 70
   128
 43
0.0
 10
1.1811868523
 20
0.6607866578
 10
1.181051569
 20
0.6608489351
 10
1.1809162826
 20
0.6609112058
 10
1.1807809931
 20
0.6609734699
 10
1.1806457006
 20
0.6610357273
 10
1.180510405
 20
0.6610979781
 10
1.1803751064
 20
0.6611602223
 10
1.1802398047
 20
0.6612224599
 10
1.1801045
 20
0.6612846908
  0
LWPOLYLINE
  5
A6
330
1F
100
AcDbEntity
  8
0
  6
Continuous
 62
     7
370
    25
100
AcDbPolyline
 90
        9
 70
   128
 43
0.0
 10
1.2358921971
 20
0.6349389488
 10
1.2357581795
 20
0.6350039053
 10
1.2356241588
 20
0.6350688552
 10
1.2354901348
 20
0.6351337986
 10
1.2353561077
 20
0.6351987354
 10
1.2352220774
 20
0.6352636657
 10
1.235088044
 20
0.6353285894
 10
1.2349540073
 20
0.6353935065
 10
1.2348199675
 20
0.6354584171
  0
LWPOLYLINE
  5
AA
330
1F
100
AcDbEntity
  8
0
  6
Continuous
 62
     7
370
    25
100
AcDbPolyline
 90
        9
 70
   128
 43
0.0
 10
1.2900724622
 20
0.6080079689
 10
1.2899397635
 20
0.6080755789
 10
1.2898070615
 20
0.6081431824
 10
1.2896743561
 20
0.6082107794
 10
1.2895416475
 20
0.6082783699
 10
1.2894089356
 20
0.6083459539
 10
1.2892762203
 20
0.6084135314
 10
1.2891435018
 20
0.6084811024
 10
1.2890107799
 20
0.6085486669
  0
LWPOLYLINE
  5
AE
330
1F
100
AcDbEntity
  8
0
  6
Continuous
 62
     7
370
    25
100
AcDbPolyline
 90
        9
 70
   128
 43
0.0
 10
1.3437061994
 20
0.5800043794
 10
1.3435748721
 20
0.5800746161
 10
1.3434435414
 20
0.5801448464
 10
1.3433122072
 20
0.5802150702
 10
1.3431808696
 20
0.5802852877
 10
1.3430495286
 20
0.5803554987
 10
1.3429181841
 20
0.5804257032
 10
1.3427868361
 20
0.5804959013
 10
1.3426554848
 20
0.580566093
  0
LWPOLYLINE
  5
B2
330
1F
100
AcDbEntity
  8
0
  6
Continuous
 62
     7
370
    25
100
AcDbPolyline
 90
        9
 70
   128
 43
0.0
 10
1.396772177
 20
0.5509392659
 10
1.3966422731
 20
0.5510121015
 10
1.3965123656
 20
0.5510849308
 10
1.3963824546
 20
0.5511577537
 10
1.39625254
 20
0.5512305702
 10
1.3961226218
 20
0.5513033804
 10
1.3959927001
 20
0.5513761842
 10
1.3958627747
 20
0.5514489817
 10
1.3957328459
 20
0.5515217728
  0
LWPOLYLINE
  5
B6
330
1F
100
AcDbEntity
  8
0
  6
Continuous
 62
     7
370
    25
100
AcDbPolyline
 90
        9
 70
   128
 43
0.0
 10
1.4492493878
 20
0.5208241344
 10
1.4491209587
 20
0.5208995401
 10
1.4489925259
 20
0.5209749395
 10
1.4488640894
 20
0.5210503326
 10
1.4487356493
 20
0.5211257194
 10
1.4486072054
 20
0.5212011
 10
1.4484787578
 20
0.5212764742
 10
1.4483503066
 20
0.5213518422
 10
1.4482218516
 20
0.5214272039
  0
LWPOLYLINE
  5
BA
330
1F
100
AcDbEntity
  8
0
  6
Continuous
 62
     7
370
    25
100
AcDbPolyline
 90
        9
 70
   128
 43
0.0
 10
1.5011170578
 20
0.4896709064
 10
1.5009901543
 20
0.4897488523
 10
1.5008632471
 20
0.489826792
 10
1.500736336
 20
0.4899047255
 10
1.5006094211
 20
0.4899826528
 10
1.5004825024
 20
0.4900605739
 10
1.5003555798
 20
0.4901384887
 10
1.5002286535
 20
0.4902163974
 10
1.5001017233
 20
0.4902942998
  0
LWPOLYLINE
  5
BE
330
1F
100
AcDbEntity
  8
0
  6
Continuous
 62
     7
370
    25
100
AcDbPolyline
 90
        9
 70
   128
 43
0.0
 10
1.5523546542
 20
0.4574919145
 10
1.5522293266
 20
0.4575723698
 10
1.5521039951
 20
0.457652819
 10
1.5519786597
 20
0.457733262
 10
1.5518533203
 20
0.4578136989
 10
1.551727977
 20
0.4578941297
 10
1.5516026297
 20
0.4579745543
 10
1.5514772785
 20
0.4580549728
 10
1.5513519234
 20
0.4581353851
  0
LWPOLYLINE
  5
C2
330
1F
100
AcDbEntity
  8
0
  6
Continuous
 62
     7
370
    25
100
AcDbPolyline
 90
        9
 70
   128
 43
0.0
 10
1.6029418937
 20
0.4242998974
 10
1.6028181916
 20
0.4243828302
 10
1.6026944855
 20
0.424465757
 10
1.6025707753
 20
0.4245486777
 10
1.6024470611
 20
0.4246315924
 10
1.6023233428
 20
0.424714501
 10
1.6021996204
 20
0.4247974035
 10
1.602075894
 20
0.4248803
 10
1.6019521635
 20
0.4249631904
  0
LWPOLYLINE
  5
C6
330
1F
100
AcDbEntity
  8
0
  6
Continuous
 62
     7
370
    25
100
AcDbPolyline
 90
        9
 70
   128
 43
0.0
 10
1.6528587505
 20
0.3901079947
 10
1.6527367229
 20
0.3901933722
 10
1.6526146911
 20
0.3902787438
 10
1.6524926552
 20
0.3903641094
 10
1.652370615
 20
0.3904494689
 10
1.6522485707
 20
0.3905348226
 10
1.6521265222
 20
0.3906201702
 10
1.6520044695
 20
0.3907055118
 10
1.6518824127
 20
0.3907908475
  0
LWPOLYLINE
  5
CA
330
1F
100
AcDbEntity
  8
0
  6
Continuous
 62
     7
370
    25
100
AcDbPolyline
 90
        9
 70
   128
 43
0.0
 10
1.7020854641
 20
0.3549297419
 10
1.7019651592
 20
0.3550175303
 10
1.7018448501
 20
0.3551053128
 10
1.7017245367
 20
0.3551930895
 10
1.701604219
 20
0.3552808602
 10
1.701483897
 20
0.355368625
 10
1.7013635707
 20
0.355456384
 10
1.7012432401
 20
0.355544137
 10
1.7011229051
 20
0.3556318842
  0
LWPOLYLINE
  5
CE
330
1F
100
AcDbEntity
  8
0
  6
Continuous
 62
     7
370
    25
100
AcDbPolyline
 90
        9
 70
   128
 43
0.0
 10
1.7506025472
 20
0.3187790649
 10
1.7504840127
 20
0.3188692294
 10
1.7503654739
 20
0.3189593882
 10
1.7502469307
 20
0.3190495411
 10
1.750128383
 20
0.3191396883
 10
1.7500098309
 20
0.3192298296
 10
1.7498912744
 20
0.3193199651
 10
1.7497727135
 20
0.3194100948
 10
1.7496541482
 20
0.3195002187
  0
LWPOLYLINE
  5
D2
330
1F
100
AcDbEntity
  8
0
  6
Continuous
 62
     7
370
    25
100
AcDbPolyline
 90
        9
 70
   128
 43
0.0
 10
1.7983907934
 20
0.2816702745
 10
1.7982740763
 20
0.2817627795
 10
1.7981573547
 20
0.2818552788
 10
1.7980406286
 20
0.2819477724
 10
1.7979238979
 20
0.2820402603
 10
1.7978071627
 20
0.2821327424
 10
1.7976904229
 20
0.2822252188
 10
1.7975736787
 20
0.2823176895
 10
1.7974569299
 20
0.2824101545
  0
SPLINE
  5
D3
330
1F
100
AcDbEntity
  8
0
  6
Continuous
 62
     7
370
    25
100
AcDbSpline
210
0.0
220
0.0
230
1.0
 70
     8
 71
     3
 72
     8
 73
     4
 74
     0
 42
0.00000001
 43
0.00000001
 40
0.0
 40
0.0
 40
0.0
 40
0.0
 40
1.0
 40
1.0
 40
1.0
 40
1.0
 10
-1.433083149707034
 20
-0.116684121657025
 30
0.0
 10
-0.38696383261064
 20
0.6738769651144516
 30
0.0
 10
0.8594499962787975
 20
0.6361872435994043
 30
0.0
 10
2.306158336961278
 20
-0.2297532862021676
 30
0.0
  0
ARC
  5
D4
330
1F
100
AcDbEntity
  8
0
  6
Continuous
 62
     7
370
    25
100
AcDbCircle
 10
1.7859677696
 20
0.2659964595
 30
0.0
 40
0.0199999999999961
100
AcDbArc
 50
16.9640851975
 51
51.5997505221
  0
ARC
  5
D5
330
1F
100
AcDbEntity
  8
0
  6
Continuous
 62
     7
370
    25
100
AcDbCircle
 10
1.8362609491
 20
0.2813381621
 30
0.0
 40
0.0325810968792189
100
AcDbArc
 50
196.9640851975
 51
265.1178640838
  0
ARC
  5
D6
330
1F
100
AcDbEntity
  8
0
  6
Continuous
 62
     7
370
    25
100
AcDbCircle
 10
1.831785968
 20
0.2289478358
 30
0.0
 40
0.0199999999997558
100
AcDbArc
 50
50.4821987591
 51
85.1178640841
  0
ARC
  5
D7
330
1F
100
AcDbEntity
  8
0
  6
Continuous
 62
     7
370
    25
100
AcDbCircle
 10
1.8326988827
 20
0.2281945099
 30
0.0
 40
0.0199999999999951
100
AcDbArc
 50
15.8240851975
 51
50.4597505221
  0
ARC
  5
D8
330
1F
100
AcDbEntity
  8
0
  6
Continuous
 62
     7
370
    25
100
AcDbCircle
 10
1.8832873375
 20
0.2425325709
 30
0.0
 40
0.0325810968792191
100
AcDbArc
 50
195.8240851975
 51
263.9778640838
  0
ARC
  5
D9
330
1F
100
AcDbEntity
  8
0
  6
Continuous
 62
     7
370
    25
100
AcDbCircle
 10
1.8777709135
 20
0.1902416461
 30
0.0
 40
0.0199999999997539
100
AcDbArc
 50
49.3421987591
 51
83.9778640841
  0
ARC
  5
DA
330
1F
100
AcDbEntity
  8
0
  6
Continuous
 62
     7
370
    25
100
AcDbCircle
 10
1.8786686597
 20
0.1894703066
 30
0.0
 40
0.0200000000000053
100
AcDbArc
 50
14.6840851975
 51
49.3197505221
  0
ARC
  5
DB
330
1F
100
AcDbEntity
  8
0
  6
Continuous
 62
     7
370
    25
100
AcDbCircle
 10
1.9295323633
 20
0.20279905
 30
0.0
 40
0.0325810968792186
100
AcDbArc
 50
194.6840851975
 51
262.8378640838
  0
ARC
  5
DC
330
1F
100
AcDbEntity
  8
0
  6
Continuous
 62
     7
370
    25
100
AcDbCircle
 10
1.9229766802
 20
0.150628227
 30
0.0
 40
0.0199999999997636
100
AcDbArc
 50
48.2021987591
 51
82.8378640841
  0
ARC
  5
DD
330
1F
100
AcDbEntity
  8
0
  6
Continuous
 62
     7
370
    25
100
AcDbCircle
 10
1.9238589026
 20
0.1498391791
 30
0.0
 40
0.0200000000000013
100
AcDbArc
 50
13.5440851975
 51
48.1797505221
  0
ARC
  5
DE
330
1F
100
AcDbEntity
  8
0
  6
Continuous
 62
     7
370
    25
100
AcDbCircle
 10
1.9749777198
 20
0.1621533285
 30
0.0
 40
0.0325810968792184
100
AcDbArc
 50
193.5440851975
 51
261.6978640838
  0
ARC
  5
DF
330
1F
100
AcDbEntity
  8
0
  6
Continuous
 62
     7
370
    25
100
AcDbCircle
 10
1.9673853728
 20
0.1101232601
 30
0.0
 40
0.0199999999997545
100
AcDbArc
 50
47.0621987591
 51
81.6978640841
  0
ARC
  5
E0
330
1F
100
AcDbEntity
  8
0
  6
Continuous
 62
     7
370
    25
100
AcDbCircle
 10
1.9682517221
 20
0.1093168161
 30
0.0
 40
0.0199999999999963
100
AcDbArc
 50
12.4040851975
 51
47.0397505221
  0
ARC
  5
E1
330
1F
100
AcDbEntity
  8
0
  6
Continuous
 62
     7
370
    25
100
AcDbCircle
 10
2.0196054166
 20
0.1206114967
 30
0.0
 40
0.0325810968792191
100
AcDbArc
 50
192.4040851975
 51
260.5578640838
  0
ARC
  5
E2
330
1F
100
AcDbEntity
  8
0
  6
Continuous
 62
     7
370
    25
100
AcDbCircle
 10
2.0109794112
 20
0.06874278
 30
0.0
 40
0.0199999999997607
100
AcDbArc
 50
45.9221987591
 51
80.5578640841
  0
ARC
  5
E3
330
1F
100
AcDbEntity
  8
0
  6
Continuous
 62
     7
370
    25
100
AcDbCircle
 10
2.0118295444
 20
0.0679192592
 30
0.0
 40
0.0199999999999975
100
AcDbArc
 50
11.2640851975
 51
45.8997505221
  0
ARC
  5
E4
330
1F
100
AcDbEntity
  8
0
  6
Continuous
 62
     7
370
    25
100
AcDbCircle
 10
2.063397787
 20
0.0781899998
 30
0.0
 40
0.0325810968792183
100
AcDbArc
 50
191.2640851975
 51
259.4178640838
  0
ARC
  5
E5
330
1F
100
AcDbEntity
  8
0
  6
Continuous
 62
     7
370
    25
100
AcDbCircle
 10
2.053741538
 20
0.0265031678
 30
0.0
 40
0.0199999999997544
100
AcDbArc
 50
44.7821987591
 51
79.4178640841
  0
ARC
  5
E6
330
1F
100
AcDbEntity
  8
0
  6
Continuous
 62
     7
370
    25
100
AcDbCircle
 10
2.0545751187
 20
0.0256628963
 30
0.0
 40
0.0199999999999953
100
AcDbArc
 50
10.1240851975
 51
44.7597505221
  0
ARC
  5
E7
330
1F
100
AcDbEntity
  8
0
  6
Continuous
 62
     7
370
    25
100
AcDbCircle
 10
2.106337495
 20
0.0349056311
 30
0.0
 40
0.0325810968792191
100
AcDbArc
 50
190.1240851975
 51
258.2778640838
  0
ARC
  5
E8
330
1F
100
AcDbEntity
  8
0
  6
Continuous
 62
     7
370
    25
100
AcDbCircle
 10
2.095654825
 20
-0.016578855
 30
0.0
 40
0.0199999999997555
100
AcDbArc
 50
43.6421987591
 51
78.2778640841
  0
ARC
  5
E9
330
1F
100
AcDbEntity
  8
0
  6
Continuous
 62
     7
370
    25
100
AcDbCircle
 10
2.0964715231
 20
-0.0174355447
 30
0.0
 40
0.0199999999999869
100
AcDbArc
 50
8.9840851975
 51
43.6197505221
  0
ARC
  5
EA
330
1F
100
AcDbEntity
  8
0
  6
Continuous
 62
     7
370
    25
100
AcDbCircle
 10
2.1484075422
 20
-0.0092244746
 30
0.0
 40
0.0325810968792194
100
AcDbArc
 50
188.9840851975
 51
257.1378640838
  0
ARC
  5
EB
330
1F
100
AcDbEntity
  8
0
  6
Continuous
 62
     7
370
    25
100
AcDbCircle
 10
2.1367026801
 20
-0.0604862338
 30
0.0
 40
0.0199999999997574
100
AcDbArc
 50
42.5021987591
 51
77.1378640841
  0
ARC
  5
EC
330
1F
100
AcDbEntity
  8
0
  6
Continuous
 62
     7
370
    25
100
AcDbCircle
 10
2.1375021724
 20
-0.0613590024
 30
0.0
 40
0.0200000000000031
100
AcDbArc
 50
7.8440851975
 51
42.4797505221
  0
ARC
  5
ED
330
1F
100
AcDbEntity
  8
0
  6
Continuous
 62
     7
370
    25
100
AcDbCircle
 10
2.1895912744
 20
-0.0541828476
 30
0.0
 40
0.0325810968792185
100
AcDbArc
 50
187.8440851975
 51
255.9978640838
  0
ARC
  5
EE
330
1F
100
AcDbEntity
  8
0
  6
Continuous
 62
     7
370
    25
100
AcDbCircle
 10
2.1768688538
 20
-0.105201587
 30
0.0
 40
0.0199999999997647
100
AcDbArc
 50
41.3621987591
 51
75.9978640841
  0
ARC
  5
EF
330
1F
100
AcDbEntity
  8
0
  6
Continuous
 62
     7
370
    25
100
AcDbCircle
 10
2.1776508237
 20
-0.1060900891
 30
0.0
 40
0.0199999999999881
100
AcDbArc
 50
6.7040851975
 51
41.3397505221
  0
ARC
  5
F0
330
1F
100
AcDbEntity
  8
0
  6
Continuous
 62
     7
370
    25
100
AcDbCircle
 10
2.2298723883
 20
-0.0999516904
 30
0.0
 40
0.0325810968792203
100
AcDbArc
 50
186.7040851975
 51
254.8578640838
  0
ARC
  5
F1
330
1F
100
AcDbEntity
  8
0
  6
Continuous
 62
     7
370
    25
100
AcDbCircle
 10
2.2161374457
 20
-0.1507072132
 30
0.0
 40
0.0199999999997543
100
AcDbArc
 50
40.2221987591
 51
74.8578640841
  0
ARC
  5
F2
330
1F
100
AcDbEntity
  8
0
  6
Continuous
 62
     7
370
    25
100
AcDbCircle
 10
2.2169015836
 20
-0.1516110971
 30
0.0
 40
0.0200000000000004
100
AcDbArc
 50
5.5640851975
 51
40.1997505221
  0
ARC
  5
F3
330
1F
100
AcDbEntity
  8
0
  6
Continuous
 62
     7
370
    25
100
AcDbCircle
 10
2.2692349379
 20
-0.1465128844
 30
0.0
 40
0.0325810968792197
100
AcDbArc
 50
185.5640851975
 51
253.7178640838
  0
ARC
  5
F4
330
1F
100
AcDbEntity
  8
0
  6
Continuous
 62
     7
370
    25
100
AcDbCircle
 10
2.2544929104
 20
-0.1969850983
 30
0.0
 40
0.0199999999997548
100
AcDbArc
 50
39.0821987591
 51
73.7178640841
  0
ARC
  5
F5
330
1F
100
AcDbEntity
  8
0
  6
Continuous
 62
     7
370
    25
100
AcDbCircle
 10
-0.0905094047
 20
-2.1015073409
 30
0.0
 40
3.04096687010069
100
AcDbArc
 50
37.9891912241
 51
39.0821987592
  0
ARC
  5
F6
330
1F
100
AcDbEntity
  8
0
  6
Continuous
 62
     7
370
    25
100
AcDbCircle
 10
-8.3114060061
 20
8.9851380268
 30
0.0
 40
11.40852715024814
100
AcDbArc
 50
303.917581939
 51
307.0786453733
  0
ARC
  5
F7
330
1F
100
AcDbEntity
  8
0
  6
Continuous
 62
     7
370
    25
100
AcDbCircle
 10
-2.0152003099
 20
-0.3783964972
 30
0.0
 40
0.1249999999999971
100
AcDbArc
 50
184.655855045
 51
303.917581939
  0
ARC
  5
F8
330
1F
100
AcDbEntity
  8
0
  6
Continuous
 62
     7
370
    25
100
AcDbCircle
 10
-1.2137534191
 20
-0.3131271977
 30
0.0
 40
0.9291002426681071
100
AcDbArc
 50
122.1320670434
 51
184.655855045
  0
ARC
  5
F9
330
1F
100
AcDbEntity
  8
0
  6
Continuous
 62
     7
370
    25
100
AcDbCircle
 10
-0.0905094047
 20
-2.1015073409
 30
0.0
 40
3.040966870098664
100
AcDbArc
 50
69.8397505221
 51
122.1320670434
  0
ARC
  5
FA
330
1F
100
AcDbEntity
  8
0
  6
Continuous
 62
     7
370
    25
100
AcDbCircle
 10
0.9506577962
 20
0.7343720095
 30
0.0
 40
0.0199999999999946
100
AcDbArc
 50
35.2040851975
 51
69.8397505221
  0
ARC
  5
FB
330
1F
100
AcDbEntity
  8
0
  6
Continuous
 62
     7
370
    25
100
AcDbCircle
 10
0.9936220101
 20
0.7646845164
 30
0.0
 40
0.0325810968792179
100
AcDbArc
 50
215.2040851975
 51
283.3578640838
  0
ARC
  5
FC
330
1F
100
AcDbEntity
  8
0
  6
Continuous
 62
     7
370
    25
100
AcDbCircle
 10
1.0057699498
 20
0.7135259462
 30
0.0
 40
0.0199999999997604
100
AcDbArc
 50
68.7221987591
 51
103.3578640841
  0
ARC
  5
FD
330
1F
100
AcDbEntity
  8
0
  6
Continuous
 62
     7
370
    25
100
AcDbCircle
 10
1.0068727835
 20
0.7130962126
 30
0.0
 40
0.0199999999999952
100
AcDbArc
 50
34.0640851975
 51
68.6997505221
  0
ARC
  5
FE
330
1F
100
AcDbEntity
  8
0
  6
Continuous
 62
     7
370
    25
100
AcDbCircle
 10
1.050431574
 20
0.7425479277
 30
0.0
 40
0.0325810968792189
100
AcDbArc
 50
214.0640851975
 51
282.2178640838
  0
ARC
  5
FF
330
1F
100
AcDbEntity
  8
0
  6
Continuous
 62
     7
370
    25
100
AcDbCircle
 10
1.0615592869
 20
0.6911577948
 30
0.0
 40
0.0199999999997596
100
AcDbArc
 50
67.5821987591
 51
102.2178640841
  0
ARC
  5
100
330
1F
100
AcDbEntity
  8
0
  6
Continuous
 62
     7
370
    25
100
AcDbCircle
 10
1.0626533525
 20
0.690706205
 30
0.0
 40
0.0200000000000044
100
AcDbArc
 50
32.9240851975
 51
67.5597505221
  0
ARC
  5
101
330
1F
100
AcDbEntity
  8
0
  6
Continuous
 62
     7
370
    25
100
AcDbCircle
 10
1.1067894761
 20
0.7192854692
 30
0.0
 40
0.0325810968792185
100
AcDbArc
 50
212.9240851975
 51
281.0778640838
  0
ARC
  5
102
330
1F
100
AcDbEntity
  8
0
  6
Continuous
 62
     7
370
    25
100
AcDbCircle
 10
1.1168925571
 20
0.6676841175
 30
0.0
 40
0.0199999999997549
100
AcDbArc
 50
66.4421987591
 51
101.0778640841
  0
ARC
  5
103
330
1F
100
AcDbEntity
  8
0
  6
Continuous
 62
     7
370
    25
100
AcDbCircle
 10
1.1179774216
 20
0.6672108501
 30
0.0
 40
0.0199999999999917
100
AcDbArc
 50
31.7840851975
 51
66.4197505221
  0
ARC
  5
104
330
1F
100
AcDbEntity
  8
0
  6
Continuous
 62
     7
370
    25
100
AcDbCircle
 10
1.1626734062
 20
0.6949063499
 30
0.0
 40
0.0325810968792184
100
AcDbArc
 50
211.7840851975
 51
279.9378640838
  0
ARC
  5
105
330
1F
100
AcDbEntity
  8
0
  6
Continuous
 62
     7
370
    25
100
AcDbCircle
 10
1.1717478558
 20
0.6431142066
 30
0.0
 40
0.0199999999997631
100
AcDbArc
 50
65.3021987591
 51
99.9378640841
  0
ARC
  5
106
330
1F
100
AcDbEntity
  8
0
  6
Continuous
 62
     7
370
    25
100
AcDbCircle
 10
1.1728230897
 20
0.642619449
 30
0.0
 40
0.02
100
AcDbArc
 50
30.6440851975
 51
65.2797505221
  0
ARC
  5
107
330
1F
100
AcDbEntity
  8
0
  6
Continuous
 62
     7
370
    25
100
AcDbCircle
 10
1.2180612416
 20
0.6694202206
 30
0.0
 40
0.0325810968792185
100
AcDbArc
 50
210.6440851975
 51
278.7978640838
  0
ARC
  5
108
330
1F
100
AcDbEntity
  8
0
  6
Continuous
 62
     7
370
    25
100
AcDbCircle
 10
1.2261034676
 20
0.6174577885
 30
0.0
 40
0.01999999999976
100
AcDbArc
 50
64.1621987591
 51
98.7978640841
  0
ARC
  5
109
330
1F
100
AcDbEntity
  8
0
  6
Continuous
 62
     7
370
    25
100
AcDbCircle
 10
1.2271686452
 20
0.6169417366
 30
0.0
 40
0.0199999999999963
100
AcDbArc
 50
29.5040851975
 51
64.1397505221
  0
ARC
  5
10A
330
1F
100
AcDbEntity
  8
0
  6
Continuous
 62
     7
370
    25
100
AcDbCircle
 10
1.2729310562
 20
0.6428371705
 30
0.0
 40
0.0325810968792183
100
AcDbArc
 50
209.5040851975
 51
277.6578640838
  0
ARC
  5
10B
330
1F
100
AcDbEntity
  8
0
  6
Continuous
 62
     7
370
    25
100
AcDbCircle
 10
1.2799378749
 20
0.5907250199
 30
0.0
 40
0.0199999999997606
100
AcDbArc
 50
63.0221987591
 51
97.6578640841
  0
ARC
  5
10C
330
1F
100
AcDbEntity
  8
0
  6
Continuous
 62
     7
370
    25
100
AcDbCircle
 10
1.2809925746
 20
0.590187878
 30
0.0
 40
0.0199999999999986
100
AcDbArc
 50
28.3640851975
 51
62.9997505221
  0
ARC
  5
10D
330
1F
100
AcDbEntity
  8
0
  6
Continuous
 62
     7
370
    25
100
AcDbCircle
 10
1.3272611286
 20
0.6151677229
 30
0.0
 40
0.0325810968792185
100
AcDbArc
 50
208.3640851975
 51
276.5178640838
  0
ARC
  5
10E
330
1F
100
AcDbEntity
  8
0
  6
Continuous
 62
     7
370
    25
100
AcDbCircle
 10
1.3332297662
 20
0.5629264833
 30
0.0
 40
0.0199999999997598
100
AcDbArc
 50
61.8821987591
 51
96.5178640841
  0
ARC
  5
10F
330
1F
100
AcDbEntity
  8
0
  6
Continuous
 62
     7
370
    25
100
AcDbCircle
 10
1.3342735705
 20
0.562368464
 30
0.0
 40
0.0199999999999959
100
AcDbArc
 50
27.2240851975
 51
61.8597505221
  0
ARC
  5
110
330
1F
100
AcDbEntity
  8
0
  6
Continuous
 62
     7
370
    25
100
AcDbCircle
 10
1.3810299515
 20
0.5864228313
 30
0.0
 40
0.0325810968792187
100
AcDbArc
 50
207.2240851975
 51
275.3778640838
  0
ARC
  5
111
330
1F
100
AcDbEntity
  8
0
  6
Continuous
 62
     7
370
    25
100
AcDbCircle
 10
1.3859580452
 20
0.5340731834
 30
0.0
 40
0.0199999999997513
100
AcDbArc
 50
60.7421987591
 51
95.3778640841
  0
ARC
  5
112
330
1F
100
AcDbEntity
  8
0
  6
Continuous
 62
     7
370
    25
100
AcDbCircle
 10
1.3869905408
 20
0.5334945076
 30
0.0
 40
0.0199999999999929
100
AcDbArc
 50
26.0840851975
 51
60.7197505221
  0
ARC
  5
113
330
1F
100
AcDbEntity
  8
0
  6
Continuous
 62
     7
370
    25
100
AcDbCircle
 10
1.4342162394
 20
0.5566138749
 30
0.0
 40
0.0325810968792196
100
AcDbArc
 50
206.0840851975
 51
274.2378640838
  0
ARC
  5
114
330
1F
100
AcDbEntity
  8
0
  6
Continuous
 62
     7
370
    25
100
AcDbCircle
 10
1.4381018383
 20
0.5041765421
 30
0.0
 40
0.019999999999757
100
AcDbArc
 50
59.6021987591
 51
94.2378640841
  0
ARC
  5
115
330
1F
100
AcDbEntity
  8
0
  6
Continuous
 62
     7
370
    25
100
AcDbCircle
 10
1.4391226166
 20
0.5035774389
 30
0.0
 40
0.0199999999999969
100
AcDbArc
 50
24.9440851975
 51
59.5797505221
  0
ARC
  5
116
330
1F
100
AcDbEntity
  8
0
  6
Continuous
 62
     7
370
    25
100
AcDbCircle
 10
1.4867989376
 20
0.525752654
 30
0.0
 40
0.0325810968792188
100
AcDbArc
 50
204.9440851975
 51
273.0978640838
  0
ARC
  5
117
330
1F
100
AcDbEntity
  8
0
  6
Continuous
 62
     7
370
    25
100
AcDbCircle
 10
1.4896405036
 20
0.4732483947
 30
0.0
 40
0.0199999999997537
100
AcDbArc
 50
58.4621987591
 51
93.0978640841
  0
ARC
  5
118
330
1F
100
AcDbEntity
  8
0
  6
Continuous
 62
     7
370
    25
100
AcDbCircle
 10
1.4906491604
 20
0.4726291012
 30
0.0
 40
0.0200000000000025
100
AcDbArc
 50
23.8040851975
 51
58.4397505221
  0
ARC
  5
119
330
1F
100
AcDbEntity
  8
0
  6
Continuous
 62
     7
370
    25
100
AcDbCircle
 10
1.5387572303
 20
0.4938513857
 30
0.0
 40
0.0325810968792184
100
AcDbArc
 50
203.8040851975
 51
271.9578640838
  0
ARC
  5
11A
330
1F
100
AcDbEntity
  8
0
  6
Continuous
 62
     7
370
    25
100
AcDbCircle
 10
1.5405536385
 20
0.4413009845
 30
0.0
 40
0.0199999999997489
100
AcDbArc
 50
57.3221987591
 51
91.9578640841
  0
ARC
  5
11B
330
1F
100
AcDbEntity
  8
0
  6
Continuous
 62
     7
370
    25
100
AcDbCircle
 10
1.5415497745
 20
0.4406617459
 30
0.0
 40
0.0199999999999907
100
AcDbArc
 50
22.6640851975
 51
57.2997505221
  0
ARC
  5
11C
330
1F
100
AcDbEntity
  8
0
  6
Continuous
 62
     7
370
    25
100
AcDbCircle
 10
1.5900705489
 20
0.4609226986
 30
0.0
 40
0.0325810968792191
100
AcDbArc
 50
202.6640851975
 51
270.8178640838
  0
ARC
  5
11D
330
1F
100
AcDbEntity
  8
0
  6
Continuous
 62
     7
370
    25
100
AcDbCircle
 10
1.5908210881
 20
0.4083469585
 30
0.0
 40
0.0199999999997573
100
AcDbArc
 50
56.1821987591
 51
90.8178640841
  0
ARC
  5
11E
330
1F
100
AcDbEntity
  8
0
  6
Continuous
 62
     7
370
    25
100
AcDbCircle
 10
1.5918043091
 20
0.4076880279
 30
0.0
 40
0.0200000000000004
100
AcDbArc
 50
21.5240851975
 51
56.1597505221
  0
ARC
  5
11F
330
1F
100
AcDbEntity
  8
0
  6
Continuous
 62
     7
370
    25
100
AcDbCircle
 10
1.6407185801
 20
0.426979628
 30
0.0
 40
0.0325810968792184
100
AcDbArc
 50
201.5240851975
 51
269.6778640838
  0
ARC
  5
120
330
1F
100
AcDbEntity
  8
0
  6
Continuous
 62
     7
370
    25
100
AcDbCircle
 10
1.6404229533
 20
0.3743993622
 30
0.0
 40
0.0199999999997578
100
AcDbArc
 50
55.0421987591
 51
89.6778640841
  0
ARC
  5
121
330
1F
100
AcDbEntity
  8
0
  6
Continuous
 62
     7
370
    25
100
AcDbCircle
 10
1.6413928699
 20
0.3737210004
 30
0.0
 40
0.0199999999999966
100
AcDbArc
 50
20.3840851975
 51
55.0197505221
  0
ARC
  5
122
330
1F
100
AcDbEntity
  8
0
  6
Continuous
 62
     7
370
    25
100
AcDbCircle
 10
1.690681274
 20
0.3920356111
 30
0.0
 40
0.0325810968792194
100
AcDbArc
 50
200.3840851975
 51
268.5378640838
  0
ARC
  5
123
330
1F
100
AcDbEntity
  8
0
  6
Continuous
 62
     7
370
    25
100
AcDbCircle
 10
1.6893395981
 20
0.3394716343
 30
0.0
 40
0.0199999999997545
100
AcDbArc
 50
53.9021987591
 51
88.5378640841
  0
ARC
  5
124
330
1F
100
AcDbEntity
  8
0
  6
Continuous
 62
     7
370
    25
100
AcDbCircle
 10
1.6902958265
 20
0.3387741099
 30
0.0
 40
0.0199999999999986
100
AcDbArc
 50
19.2440851975
 51
53.8797505221
  0
ARC
  5
125
330
1F
100
AcDbEntity
  8
0
  6
Continuous
 62
     7
370
    25
100
AcDbCircle
 10
1.739938852
 20
0.356104481
 30
0.0
 40
0.0325810968792185
100
AcDbArc
 50
199.2440851975
 51
267.3978640838
  0
ARC
  5
126
330
1F
100
AcDbEntity
  8
0
  6
Continuous
 62
     7
370
    25
100
AcDbCircle
 10
1.7375516582
 20
0.3035776016
 30
0.0
 40
0.0199999999997566
100
AcDbArc
 50
52.7621987591
 51
87.3978640841
  0
ARC
  5
127
330
1F
100
AcDbEntity
  8
0
  6
Continuous
 62
     7
370
    25
100
AcDbCircle
 10
1.7384938197
 20
0.3028611907
 30
0.0
 40
0.0199999999999964
100
AcDbArc
 50
18.1040851975
 51
52.7397505221
  0
ARC
  5
128
330
1F
100
AcDbEntity
  8
0
  6
Continuous
 62
     7
370
    25
100
AcDbCircle
 10
1.7884718146
 20
0.3192004616
 30
0.0
 40
0.0325810968792189
100
AcDbArc
 50
198.1040851975
 51
266.2578640838
  0
ARC
  5
129
330
1F
100
AcDbEntity
  8
0
  6
Continuous
 62
     7
370
    25
100
AcDbCircle
 10
1.7850400479
 20
0.2667314734
 30
0.0
 40
0.0199999999997546
100
AcDbArc
 50
51.6221987591
 51
86.2578640841
  0
MTEXT
  5
12B
330
1F
100
AcDbEntity
  8
0
  6
Continuous
 62
     7
100
AcDbMText
 10
-2.1428536617
 20
-0.5435369063
 30
0.0
 40
0.1903
 41
0.0
 71
     1
 72
     1
  1
SOLIDWORKS Educational Product.
  7
SLDTEXTSTYLE0
 73
     1
 44
1.0
  0
MTEXT
  5
12C
330
1F
100
AcDbEntity
  8
0
  6
Continuous
 62
     7
100
AcDbMText
 10
-2.1428536617
 20
-0.8289869063
 30
0.0
 40
0.1903
 41
0.0
 71
     1
 72
     1
  1
For Instructional Use Only.
  7
SLDTEXTSTYLE0
 73
     1
 44
1.0
  0
ENDSEC
  0
SECTION
  2
OBJECTS
  0
DICTIONARY
  5
C
330
0
100
AcDbDictionary
281
     1
  3
ACAD_GROUP
350
D
  3
ACAD_LAYOUT
350
1A
  3
ACAD_MLINESTYLE
350
17
  3
ACAD_PLOTSETTINGS
350
19
  3
ACAD_PLOTSTYLENAME
350
E
  3
ACAD_SCALELIST
350
47
  3
DWGPROPS
350
12D
  0
DICTIONARY
  5
D
102
{ACAD_REACTORS
330
C
102
}
330
C
100
AcDbDictionary
281
     1
  0
DICTIONARY
  5
1A
102
{ACAD_REACTORS
330
C
102
}
330
C
100
AcDbDictionary
281
     1
  3
Layout1
350
1E
  3
Layout2
350
26
  3
Model
350
22
  0
DICTIONARY
  5
17
102
{ACAD_REACTORS
330
C
102
}
330
C
100
AcDbDictionary
281
     1
  3
Standard
350
18
  0
DICTIONARY
  5
19
102
{ACAD_REACTORS
330
C
102
}
330
C
100
AcDbDictionary
281
     1
  0
ACDBDICTIONARYWDFLT
  5
E
102
{ACAD_REACTORS
330
C
102
}
330
C
100
AcDbDictionary
281
     1
  3
Normal
350
F
100
AcDbDictionaryWithDefault
340
F
  0
DICTIONARY
  5
47
102
{ACAD_REACTORS
330
C
102
}
330
C
100
AcDbDictionary
281
     1
  3
A0
350
48
  3
A1
350
49
  3
A2
350
4A
  3
A3
350
4B
  3
A4
350
4C
  3
A5
350
4D
  3
A6
350
4E
  3
A7
350
4F
  3
A8
350
50
  3
A9
350
51
  3
B1
350
52
  3
B2
350
53
  3
B3
350
54
  3
B4
350
55
  3
B5
350
56
  3
B6
350
57
  3
B7
350
58
  0
XRECORD
  5
12D
102
{ACAD_REACTORS
330
C
102
}
330
C
100
AcDbXrecord
280
     1
  1
DWGPROPS COOKIE
  2

  3

  4

  6

  7

  8
what2
  9

300
=
301
=
302
=
303
=
304
=
305
=
306
=
307
=
308
=
309
=
 40
0.0
 41
2460371.814786794
 42
2460371.814813091
  1

 90
        0
  0
LAYOUT
  5
1E
102
{ACAD_REACTORS
330
1A
102
}
330
1A
100
AcDbPlotSettings
  1

  2
none_device
  4

  6

 40
0.0
 41
0.0
 42
0.0
 43
0.0
 44
0.0
 45
0.0
 46
0.0
 47
0.0
 48
0.0
 49
0.0
140
0.0
141
0.0
142
1.0
143
1.0
 70
   688
 72
     0
 73
     0
 74
     5
  7

 75
    16
147
1.0
148
0.0
149
0.0
100
AcDbLayout
  1
Layout1
 70
     1
 71
     1
 10
0.0
 20
0.0
 11
12.0
 21
9.0
 12
0.0
 22
0.0
 32
0.0
 14
1.0000000000E+20
 24
1.0000000000E+20
 34
1.0000000000E+20
 15
-1.0000000000E+20
 25
-1.0000000000E+20
 35
-1.0000000000E+20
146
0.0
 13
0.0
 23
0.0
 33
0.0
 16
1.0
 26
0.0
 36
0.0
 17
0.0
 27
1.0
 37
0.0
 76
     0
330
1B
  0
LAYOUT
  5
26
102
{ACAD_REACTORS
330
1A
102
}
330
1A
100
AcDbPlotSettings
  1

  2
none_device
  4

  6

 40
0.0
 41
0.0
 42
0.0
 43
0.0
 44
0.0
 45
0.0
 46
0.0
 47
0.0
 48
0.0
 49
0.0
140
0.0
141
0.0
142
1.0
143
1.0
 70
   688
 72
     0
 73
     0
 74
     5
  7

 75
    16
147
1.0
148
0.0
149
0.0
100
AcDbLayout
  1
Layout2
 70
     1
 71
     2
 10
0.0
 20
0.0
 11
0.0
 21
0.0
 12
0.0
 22
0.0
 32
0.0
 14
0.0
 24
0.0
 34
0.0
 15
0.0
 25
0.0
 35
0.0
146
0.0
 13
0.0
 23
0.0
 33
0.0
 16
1.0
 26
0.0
 36
0.0
 17
0.0
 27
1.0
 37
0.0
 76
     0
330
23
  0
LAYOUT
  5
22
102
{ACAD_REACTORS
330
1A
102
}
330
1A
100
AcDbPlotSettings
  1

  2
none_device
  4
ANSI_A_(11.00_x_8.50_Inches)
  6

 40
6.35
 41
19.05
 42
6.35000508
 43
19.05000254
 44
279.4
 45
215.9
 46
128.2734711421
 47
75.3444440272
 48
0.0
 49
0.0
140
0.0
141
0.0
142
2.447734464
143
1.0
 70
  1696
 72
     0
 73
     0
 74
     0
  7

 75
     0
147
0.5913241897
148
-39.4088153714
149
0.0
100
AcDbLayout
  1
Model
 70
     1
 71
     0
 10
0.0
 20
0.0
 11
12.0
 21
9.0
 12
0.0
 22
0.0
 32
0.0
 14
-2.1428536617
 24
-0.5033964972
 34
0.0
 15
2.306158337
 25
0.9394595292
 35
0.0
146
0.0
 13
0.0
 23
0.0
 33
0.0
 16
1.0
 26
0.0
 36
0.0
 17
0.0
 27
1.0
 37
0.0
 76
     0
330
1F
331
29
  0
MLINESTYLE
  5
18
102
{ACAD_REACTORS
330
17
102
}
330
17
100
AcDbMlineStyle
  2
Standard
 70
     0
  3

 62
   256
 51
90.0
 52
90.0
 71
     2
 49
0.5
 62
   256
  6
BYLAYER
 49
-0.5
 62
   256
  6
BYLAYER
  0
ACDBPLACEHOLDER
  5
F
102
{ACAD_REACTORS
330
E
102
}
330
E
  0
SCALE
  5
48
102
{ACAD_REACTORS
330
47
102
}
330
47
100
AcDbScale
 70
     0
300
1:1
140
1.0
141
1.0
290
     1
  0
SCALE
  5
49
102
{ACAD_REACTORS
330
47
102
}
330
47
100
AcDbScale
 70
     0
300
1/128" = 1'-0"
140
0.0078125
141
12.0
290
     0
  0
SCALE
  5
4A
102
{ACAD_REACTORS
330
47
102
}
330
47
100
AcDbScale
 70
     0
300
1/64" = 1'-0"
140
0.015625
141
12.0
290
     0
  0
SCALE
  5
4B
102
{ACAD_REACTORS
330
47
102
}
330
47
100
AcDbScale
 70
     0
300
1/32" = 1'-0"
140
0.03125
141
12.0
290
     0
  0
SCALE
  5
4C
102
{ACAD_REACTORS
330
47
102
}
330
47
100
AcDbScale
 70
     0
300
1/16" = 1'-0"
140
0.0625
141
12.0
290
     0
  0
SCALE
  5
4D
102
{ACAD_REACTORS
330
47
102
}
330
47
100
AcDbScale
 70
     0
300
3/32" = 1'-0"
140
0.09375
141
12.0
290
     0
  0
SCALE
  5
4E
102
{ACAD_REACTORS
330
47
102
}
330
47
100
AcDbScale
 70
     0
300
1/8" = 1'-0"
140
0.125
141
12.0
290
     0
  0
SCALE
  5
4F
102
{ACAD_REACTORS
330
47
102
}
330
47
100
AcDbScale
 70
     0
300
3/16" = 1'-0"
140
0.1875
141
12.0
290
     0
  0
SCALE
  5
50
102
{ACAD_REACTORS
330
47
102
}
330
47
100
AcDbScale
 70
     0
300
1/4" = 1'-0"
140
0.25
141
12.0
290
     0
  0
SCALE
  5
51
102
{ACAD_REACTORS
330
47
102
}
330
47
100
AcDbScale
 70
     0
300
3/8" = 1'-0"
140
0.375
141
12.0
290
     0
  0
SCALE
  5
52
102
{ACAD_REACTORS
330
47
102
}
330
47
100
AcDbScale
 70
     0
300
1/2" = 1'-0"
140
0.5
141
12.0
290
     0
  0
SCALE
  5
53
102
{ACAD_REACTORS
330
47
102
}
330
47
100
AcDbScale
 70
     0
300
3/4" = 1'-0"
140
0.75
141
12.0
290
     0
  0
SCALE
  5
54
102
{ACAD_REACTORS
330
47
102
}
330
47
100
AcDbScale
 70
     0
300
1" = 1'-0"
140
1.0
141
12.0
290
     0
  0
SCALE
  5
55
102
{ACAD_REACTORS
330
47
102
}
330
47
100
AcDbScale
 70
     0
300
1-1/2" = 1'-0"
140
1.5
141
12.0
290
     0
  0
SCALE
  5
56
102
{ACAD_REACTORS
330
47
102
}
330
47
100
AcDbScale
 70
     0
300
3" = 1'-0"
140
3.0
141
12.0
290
     0
  0
SCALE
  5
57
102
{ACAD_REACTORS
330
47
102
}
330
47
100
AcDbScale
 70
     0
300
6" = 1'-0"
140
6.0
141
12.0
290
     0
  0
SCALE
  5
58
102
{ACAD_REACTORS
330
47
102
}
330
47
100
AcDbScale
 70
     0
300
1'-0" = 1'-0"
140
12.0
141
12.0
290
     0
  0
ENDSEC
  0
EOF
